<svg xmlns="http://www.w3.org/2000/svg" height="20" viewBox="0 -960 960 960" width="20"><path d="M446.115-172.54q-96.307-12.808-161.576-85.48-65.268-72.673-65.268-172.788 0-55.807 21.48-103.134 21.481-47.326 57.673-82.518l34.037 33.845q-30.154 28-47.692 67.827t-17.538 83.98q0 80.693 51.442 138.5Q370.115-234.5 446.115-221.5v48.96Zm67.962.769v-48.96q76.115-13.538 127.654-71.75 51.538-58.211 51.538-138.327 0-88.884-62.192-151.077Q568.885-644.077 480-644.077h-19.77l57.616 57.616-34.23 33.422-114.922-114.922 114.922-114.922 34.23 34.23-56.616 56.616H480q108.307 0 184.768 76.461t76.461 184.768q0 100.807-65.711 173.692-65.711 72.884-161.441 85.345Z"/></svg>