<svg xmlns="http://www.w3.org/2000/svg" height="20" viewBox="0 -960 960 960" width="20"><path d="m758.654-167.886-234.897-235q-29.603 22.77-65.088 34.712-35.484 11.942-72.399 11.942-91.486 0-155.32-63.861-63.834-63.862-63.834-155 0-91.137 63.757-155.099 63.756-63.961 154.999-63.961t155.204 63.928q63.961 63.927 63.961 155.195 0 38.292-12.576 73.93-12.577 35.638-34.077 64.066l235 234.418-34.73 34.73ZM386.077-404.192q71.808 0 121.404-49.523 49.596-49.522 49.596-121.5 0-71.978-49.596-121.478t-121.5-49.5q-71.904 0-121.404 49.523t-49.5 121.5q0 71.978 49.516 121.478t121.484 49.5Z"/></svg>